# xmcd
#
# Track frame offsets:
#	150
#	20855
#	38802
#	59610
#	80182
#	96982
#	122398
#	142224
#	162308
#	180333
#	195478
#	214168
#	230549
#	248737
#	268480
#	296781
#
# Disc length: 3965 seconds
#
# Revision: 1
# Processed by: cddbd v1.5.1PL2 Copyright (c) Steve Scherf et al.
# Submitted via: audiograbber 1.83.01
#
DISCID=f90f7b10
DTITLE=Best Male Country Hits Of 2005 - SC8944
DYEAR=2005
DGENRE=Karaoke
TTITLE0=Pinson, Bobby - Don't Ask Me How I Know
TTITLE1=Worley, Darryl - Awful Beautiful Life
TTITLE2=Big and Rich - Holy Water
TTITLE3=Paisley, Brad - Alcohol
TTITLE4=Keith, Toby - Stays In Mexico
TTITLE5=Chesney, Kenny - Anything But Mine
TTITLE6=Urban, Keith - Making Memories Of Us
TTITLE7=Brooks and Dunn - It's Getting Better All The Time
TTITLE8=Rascal Flatts - Bless The Broken Road
TTITLE9=Anderson, Keith - Pickin' Wildflowers
TTITLE10=Strait, George - I Hate Everything
TTITLE11=Shelton, Blake - Some Beach
TTITLE12=Keith, Toby - As Good As I Once Was
TTITLE13=Gracin, Josh - Stay With Me (brass bed)
TTITLE14=Allan, Gary - Nothing On But The Radio
TTITLE15=Data - Data Track
EXTD=
EXTT0=
EXTT1=
EXTT2=
EXTT3=
EXTT4=
EXTT5=
EXTT6=
EXTT7=
EXTT8=
EXTT9=
EXTT10=
EXTT11=
EXTT12=
EXTT13=
EXTT14=
EXTT15=
PLAYORDER=
